<svg preserveAspectRatio="xMidYMid meet" data-bbox="-0.003 -0.004 367.723 66.747" viewBox="-0.003 -0.004 367.723 66.747" xmlns="http://www.w3.org/2000/svg" data-type="color" role="presentation" aria-hidden="true">
    <g>
        <g>
            <path d="M16.69 62.42A32.1 32.1 0 0 1 4.46 50.48 33.26 33.26 0 0 1 0 33.37a33.26 33.26 0 0 1 4.46-17.11A32.1 32.1 0 0 1 16.69 4.32 35.17 35.17 0 0 1 34.12 0a36.64 36.64 0 0 1 13.16 2.3 27.18 27.18 0 0 1 10.25 6.82l-3 3.1q-7.89-7.8-20.21-7.8a30.39 30.39 0 0 0-15 3.76A27.59 27.59 0 0 0 8.65 18.56a28.93 28.93 0 0 0-3.86 14.81 28.87 28.87 0 0 0 3.86 14.8 27.47 27.47 0 0 0 10.62 10.39 30.39 30.39 0 0 0 15 3.76q12.22 0 20.21-7.89l3 3.1a27.5 27.5 0 0 1-10.3 6.86 35.88 35.88 0 0 1-13.11 2.35 35.17 35.17 0 0 1-17.38-4.32Z" fill="#faff7f" data-color="1"></path>
            <path fill="#faff7f" d="m30.05 30.05 15.49-5.52L37 38.59l-6.95-8.54z" data-color="1"></path>
            <path fill="#faff7f" d="m37 38.59-15.49 5.52 8.54-14.06L37 38.59z" data-color="1"></path>
            <path d="M71.87 44.61a12.64 12.64 0 0 1-4.8-4.77 13.59 13.59 0 0 1-1.75-6.9A13.56 13.56 0 0 1 67.07 26a12.45 12.45 0 0 1 4.8-4.75 14.65 14.65 0 0 1 13.7 0A12.26 12.26 0 0 1 90.35 26a13.75 13.75 0 0 1 1.72 6.9 13.77 13.77 0 0 1-1.72 6.9 12.45 12.45 0 0 1-4.78 4.77 14.43 14.43 0 0 1-13.7 0Zm11.88-2.7a8.84 8.84 0 0 0 3.47-3.62 11.26 11.26 0 0 0 1.25-5.35 11.26 11.26 0 0 0-1.25-5.35A8.87 8.87 0 0 0 83.75 24a10.58 10.58 0 0 0-10 0 9 9 0 0 0-3.5 3.63 11 11 0 0 0-1.28 5.35 11 11 0 0 0 1.28 5.35 9 9 0 0 0 3.5 3.62 10.5 10.5 0 0 0 10 0Z" fill="#ffffff" data-color="2"></path>
            <path d="M140.4 22.44q2.82 2.85 2.82 8.4v15.25h-3.55v-14.9c0-2.73-.66-4.82-2-6.25a7.22 7.22 0 0 0-5.58-2.15 8.4 8.4 0 0 0-6.45 2.52 9.84 9.84 0 0 0-2.35 7v13.8h-3.55V31.19c0-2.73-.66-4.82-2-6.25a7.29 7.29 0 0 0-5.63-2.15 8.39 8.39 0 0 0-6.42 2.52 9.77 9.77 0 0 0-2.38 7v13.8h-3.49V19.79h3.4v4.8a9.47 9.47 0 0 1 3.9-3.7 12.24 12.24 0 0 1 5.75-1.3A11.21 11.21 0 0 1 118.6 21a8.59 8.59 0 0 1 3.62 4.15 10.33 10.33 0 0 1 4.18-4.08 12.87 12.87 0 0 1 6.22-1.47 10.48 10.48 0 0 1 7.78 2.84Z" fill="#ffffff" data-color="2"></path>
            <path d="M173.62 21.26a12 12 0 0 1 4.7 4.73 14.06 14.06 0 0 1 1.7 7 14.17 14.17 0 0 1-1.7 7 12 12 0 0 1-4.67 4.72 13.47 13.47 0 0 1-6.73 1.68 12.33 12.33 0 0 1-5.77-1.39 10.9 10.9 0 0 1-4.23-3.87v14.66h-3.55v-36h3.4V25a11 11 0 0 1 4.23-4 12.3 12.3 0 0 1 5.92-1.4 13.57 13.57 0 0 1 6.7 1.66Zm-2 20.65a9 9 0 0 0 3.53-3.62 11 11 0 0 0 1.27-5.35 10.91 10.91 0 0 0-1.27-5.33 9.24 9.24 0 0 0-3.48-3.61 10.3 10.3 0 0 0-10 0 9.24 9.24 0 0 0-3.5 3.62 10.91 10.91 0 0 0-1.28 5.33 11 11 0 0 0 1.28 5.35 9 9 0 0 0 3.5 3.62 10.44 10.44 0 0 0 10 0Z" fill="#ffffff" data-color="2"></path>
            <path d="M211.77 19.79v26.3h-3.4v-5.2a10.79 10.79 0 0 1-4.22 4 12.45 12.45 0 0 1-5.93 1.4 13.38 13.38 0 0 1-6.7-1.7 12.13 12.13 0 0 1-4.7-4.75 14.06 14.06 0 0 1-1.7-7 14.06 14.06 0 0 1 1.7-6.95 12 12 0 0 1 4.7-4.73 13.57 13.57 0 0 1 6.7-1.67 12.51 12.51 0 0 1 5.78 1.42 11 11 0 0 1 4.22 3.88v-5Zm-8.27 22.12a9 9 0 0 0 3.5-3.62 11 11 0 0 0 1.27-5.35 11 11 0 0 0-1.27-5.35 9.07 9.07 0 0 0-3.5-3.59 10.48 10.48 0 0 0-10 0 9 9 0 0 0-3.5 3.63 11 11 0 0 0-1.28 5.35 11 11 0 0 0 1.28 5.31 9 9 0 0 0 3.5 3.62 10.41 10.41 0 0 0 10 0Z" fill="#ffffff" data-color="2"></path>
            <path d="M223.1 45.41a13.14 13.14 0 0 1-4.58-2.32l1.6-2.8a13.36 13.36 0 0 0 4.15 2.12 16.5 16.5 0 0 0 5.2.83 9.94 9.94 0 0 0 5.33-1.13 3.57 3.57 0 0 0 1.72-3.17 2.87 2.87 0 0 0-1-2.28 6.35 6.35 0 0 0-2.4-1.25 36.15 36.15 0 0 0-3.85-.82 43.5 43.5 0 0 1-5.15-1.23 7.45 7.45 0 0 1-3.32-2.12 5.89 5.89 0 0 1-1.38-4.15 6.51 6.51 0 0 1 2.75-5.4q2.75-2.1 7.65-2.1a19.85 19.85 0 0 1 5.1.67 13.86 13.86 0 0 1 4.2 1.78l-1.55 2.85a13.28 13.28 0 0 0-7.75-2.25 9 9 0 0 0-5.12 1.2A3.68 3.68 0 0 0 223 27a3.11 3.11 0 0 0 1 2.4 5.91 5.91 0 0 0 2.42 1.32 37.39 37.39 0 0 0 4 .88 46.2 46.2 0 0 1 5.05 1.2 7.37 7.37 0 0 1 3.25 2.05 5.63 5.63 0 0 1 1.35 4 6.36 6.36 0 0 1-2.87 5.47q-2.88 2-8 2a20.08 20.08 0 0 1-6.1-.91Z" fill="#ffffff" data-color="2"></path>
            <path d="M248 45.41a13.09 13.09 0 0 1-4.57-2.32l1.6-2.8a13.36 13.36 0 0 0 4.15 2.12 16.5 16.5 0 0 0 5.2.83 10 10 0 0 0 5.33-1.13 3.6 3.6 0 0 0 1.72-3.17 2.87 2.87 0 0 0-1-2.28 6.35 6.35 0 0 0-2.4-1.25 36.15 36.15 0 0 0-3.85-.82 43.5 43.5 0 0 1-5.15-1.23 7.53 7.53 0 0 1-3.33-2.12 5.93 5.93 0 0 1-1.37-4.15 6.51 6.51 0 0 1 2.75-5.4q2.75-2.1 7.65-2.1a19.85 19.85 0 0 1 5.1.67 13.86 13.86 0 0 1 4.2 1.78l-1.55 2.85a13.28 13.28 0 0 0-7.75-2.25 8.94 8.94 0 0 0-5.12 1.2A3.66 3.66 0 0 0 248 27a3.08 3.08 0 0 0 1 2.4 5.85 5.85 0 0 0 2.42 1.32 37.39 37.39 0 0 0 4 .88 46.2 46.2 0 0 1 5.05 1.2 7.37 7.37 0 0 1 3.25 2.05 5.63 5.63 0 0 1 1.35 4 6.35 6.35 0 0 1-2.88 5.47q-2.86 2-8 2a20.19 20.19 0 0 1-6.19-.91Z" fill="#ffffff" data-color="2"></path>
            <path d="M276.92 46.09 267.87 20h4l7.05 21.25-1.25-.1L285.32 24h2.25l7.7 17.1-1.5.1L301 20h3.95l-9.05 26.1h-2.2l-8.1-18.6 1.5.1-7.85 18.5Z" fill="#ffffff" data-color="2"></path>
            <path d="M335.12 19.79v26.3h-3.4v-5.2a10.79 10.79 0 0 1-4.22 4 12.45 12.45 0 0 1-5.93 1.4 13.38 13.38 0 0 1-6.7-1.7 12.13 12.13 0 0 1-4.7-4.75 14.06 14.06 0 0 1-1.7-7 14.06 14.06 0 0 1 1.7-6.95 12 12 0 0 1 4.7-4.73 13.57 13.57 0 0 1 6.7-1.67 12.44 12.44 0 0 1 5.77 1.32 11 11 0 0 1 4.23 3.88v-5Zm-8.28 22.12a8.91 8.91 0 0 0 3.5-3.62 10.94 10.94 0 0 0 1.28-5.35 10.94 10.94 0 0 0-1.28-5.35 8.94 8.94 0 0 0-3.5-3.63 9.8 9.8 0 0 0-5-1.27 10 10 0 0 0-5 1.27 9.13 9.13 0 0 0-3.5 3.63 11.16 11.16 0 0 0-1.27 5.35 11.16 11.16 0 0 0 1.27 5.35 9.11 9.11 0 0 0 3.5 3.62 10 10 0 0 0 5 1.28 9.81 9.81 0 0 0 5-1.28Z" fill="#ffffff" data-color="2"></path>
            <path d="m348.62 57.59 5.05-12.3.35 3.55L340.92 20h4.25l8.95 20a19.42 19.42 0 0 1 .8 1.87q.4 1.08.75 2.13l-1.4-.15c.23-.57.46-1.15.67-1.75s.43-1.18.63-1.75L363.42 20h4.3l-10.55 26.1-4.5 11.5Z" fill="#ffffff" data-color="2"></path>
        </g>
    </g>
</svg>